<svg width="32" height="32" viewBox="0 0 32 32" fill="none" xmlns="http://www.w3.org/2000/svg">
<circle cx="16" cy="16" r="15.25" stroke="#EAEAEA" stroke-width="1.5"/>
<g clip-path="url(#clip0_129_1402)">
<path d="M20.5 7.75H11.5C11.0075 7.75 10.5199 7.847 10.0649 8.03545C9.60997 8.22391 9.19657 8.50013 8.84835 8.84835C8.14509 9.55161 7.75 10.5054 7.75 11.5V20.5C7.75 20.9925 7.847 21.4801 8.03545 21.9351C8.22391 22.39 8.50013 22.8034 8.84835 23.1517C9.55161 23.8549 10.5054 24.25 11.5 24.25H20.5C20.9925 24.25 21.4801 24.153 21.9351 23.9645C22.39 23.7761 22.8034 23.4999 23.1517 23.1517C23.4999 22.8034 23.7761 22.39 23.9645 21.9351C24.153 21.4801 24.25 20.9925 24.25 20.5V11.5C24.25 11.0075 24.153 10.5199 23.9645 10.0649C23.7761 9.60997 23.4999 9.19657 23.1517 8.84835C22.8034 8.50013 22.39 8.22391 21.9351 8.03545C21.4801 7.847 20.9925 7.75 20.5 7.75ZM10.75 11.5C10.6017 11.5 10.4567 11.456 10.3333 11.3736C10.21 11.2912 10.1139 11.1741 10.0571 11.037C10.0003 10.9 9.98547 10.7492 10.0144 10.6037C10.0433 10.4582 10.1148 10.3246 10.2197 10.2197C10.3246 10.1148 10.4582 10.0433 10.6037 10.0144C10.7492 9.98547 10.9 10.0003 11.037 10.0571C11.1741 10.1139 11.2912 10.21 11.3736 10.3333C11.456 10.4567 11.5 10.6017 11.5 10.75C11.5 10.9489 11.421 11.1397 11.2803 11.2803C11.1397 11.421 10.9489 11.5 10.75 11.5ZM16 20.5C15.11 20.5 14.24 20.2361 13.4999 19.7416C12.7599 19.2471 12.1831 18.5443 11.8425 17.7221C11.5019 16.8998 11.4128 15.995 11.5865 15.1221C11.7601 14.2492 12.1887 13.4474 12.818 12.818C13.4474 12.1887 14.2492 11.7601 15.1221 11.5865C15.995 11.4128 16.8998 11.5019 17.7221 11.8425C18.5443 12.1831 19.2471 12.7599 19.7416 13.4999C20.2361 14.24 20.5 15.11 20.5 16C20.5 17.1935 20.0259 18.3381 19.182 19.182C18.3381 20.0259 17.1935 20.5 16 20.5Z" fill="#1B4E30"/>
</g>
<defs>
<clipPath id="clip0_129_1402">
<rect width="18" height="18" fill="white" transform="translate(7 7)"/>
</clipPath>
</defs>
</svg>
