<svg width="32" height="32" viewBox="0 0 32 32" fill="none" xmlns="http://www.w3.org/2000/svg">
<path d="M14.6416 13.7028V16.7943C14.2522 16.6916 13.8448 16.6776 13.4493 16.7533C13.0538 16.829 12.6804 16.9925 12.3565 17.2318C12.0326 17.471 11.7666 17.7799 11.5779 18.1356C11.3893 18.4914 11.2829 18.8849 11.2666 19.2872C11.2443 19.6337 11.2964 19.9808 11.4195 20.3054C11.5425 20.63 11.7336 20.9244 11.98 21.169C12.2263 21.4136 12.5221 21.6026 12.8476 21.7232C13.1731 21.8439 13.5206 21.8936 13.8668 21.8688C14.2166 21.8956 14.568 21.8462 14.8967 21.7239C15.2255 21.6016 15.5238 21.4095 15.7711 21.1607C16.0183 20.9119 16.2086 20.6123 16.3287 20.2828C16.4489 19.9533 16.4961 19.6016 16.4671 19.252V7H19.5248C20.0446 10.2362 21.6631 10.987 23.8298 11.3335V14.4348C22.3283 14.3116 20.8798 13.8223 19.6111 13.0097V19.135C19.6111 21.91 17.9686 25 13.8908 25C13.1258 24.9967 12.3691 24.8406 11.6652 24.5411C10.9612 24.2415 10.3242 23.8044 9.79135 23.2554C9.25852 22.7065 8.84063 22.0567 8.56219 21.3441C8.28375 20.6315 8.15036 19.8705 8.16983 19.1058C8.19406 18.3095 8.38677 17.5275 8.73526 16.8112C9.08375 16.0948 9.58011 15.4605 10.1916 14.95C10.8031 14.4395 11.5159 14.0644 12.2829 13.8494C13.0499 13.6344 13.8538 13.5844 14.6416 13.7028Z" fill="#1B4E30"/>
<circle cx="16" cy="16" r="15.25" stroke="#EAEAEA" stroke-width="1.5"/>
</svg>
