<svg width="32" height="32" viewBox="0 0 32 32" fill="none" xmlns="http://www.w3.org/2000/svg">
<path d="M24.85 12.4C24.85 12.4 24.7 11.125 24.1 10.6C23.425 9.85 22.675 9.85 22.3 9.85C19.75 9.7 16 9.7 16 9.7C16 9.7 12.25 9.7 9.7 9.85C9.325 9.925 8.575 9.925 7.9 10.6C7.375 11.125 7.15 12.4 7.15 12.4C7.15 12.4 7 13.825 7 15.325V16.675C7 18.1 7.15 19.6 7.15 19.6C7.15 19.6 7.3 20.875 7.9 21.4C8.575 22.15 9.475 22.075 9.85 22.15C11.275 22.3 16 22.3 16 22.3C16 22.3 19.75 22.3 22.3 22.075C22.675 22 23.425 22 24.1 21.325C24.625 20.8 24.85 19.525 24.85 19.525C24.85 19.525 25 18.1 25 16.6V15.25C25 13.825 24.85 12.4 24.85 12.4ZM14.125 18.325V13.3L19 15.85L14.125 18.325Z" fill="#1B4E30"/>
<circle cx="16" cy="16" r="15.25" stroke="#EAEAEA" stroke-width="1.5"/>
</svg>
