<svg width="32" height="32" viewBox="0 0 32 32" fill="none" xmlns="http://www.w3.org/2000/svg">
<path d="M24.85 12.4002C24.85 12.4002 24.7 11.1252 24.1 10.6002C23.425 9.8502 22.675 9.8502 22.3 9.8502C19.75 9.7002 16 9.7002 16 9.7002C16 9.7002 12.25 9.7002 9.7 9.8502C9.325 9.9252 8.575 9.9252 7.9 10.6002C7.375 11.1252 7.15 12.4002 7.15 12.4002C7.15 12.4002 7 13.8252 7 15.3252V16.6752C7 18.1002 7.15 19.6002 7.15 19.6002C7.15 19.6002 7.3 20.8752 7.9 21.4002C8.575 22.1502 9.475 22.0752 9.85 22.1502C11.275 22.3002 16 22.3002 16 22.3002C16 22.3002 19.75 22.3002 22.3 22.0752C22.675 22.0002 23.425 22.0002 24.1 21.3252C24.625 20.8002 24.85 19.5252 24.85 19.5252C24.85 19.5252 25 18.1002 25 16.6002V15.2502C25 13.8252 24.85 12.4002 24.85 12.4002ZM14.125 18.3252V13.3002L19 15.8502L14.125 18.3252Z" fill="#D9D9D9"/>
<circle cx="16" cy="16" r="15.25" stroke="#386249" stroke-width="1.5"/>
</svg>
