<svg width="32" height="32" viewBox="0 0 32 32" fill="none" xmlns="http://www.w3.org/2000/svg">
<path d="M14.6418 13.7028V16.7943C14.2524 16.6916 13.845 16.6776 13.4495 16.7533C13.054 16.829 12.6806 16.9925 12.3567 17.2318C12.0328 17.471 11.7667 17.7799 11.5781 18.1356C11.3895 18.4914 11.2831 18.8849 11.2668 19.2872C11.2445 19.6337 11.2966 19.9808 11.4196 20.3054C11.5427 20.63 11.7338 20.9244 11.9801 21.169C12.2265 21.4136 12.5223 21.6026 12.8478 21.7232C13.1732 21.8439 13.5208 21.8936 13.867 21.8688C14.2168 21.8956 14.5681 21.8462 14.8969 21.7239C15.2257 21.6016 15.524 21.4095 15.7712 21.1607C16.0185 20.9119 16.2088 20.6123 16.3289 20.2828C16.4491 19.9533 16.4963 19.6016 16.4673 19.252V7H19.525C20.0448 10.2362 21.6633 10.987 23.83 11.3335V14.4348C22.3285 14.3116 20.8799 13.8223 19.6113 13.0097V19.135C19.6113 21.91 17.9688 25 13.891 25C13.126 24.9967 12.3693 24.8406 11.6654 24.5411C10.9614 24.2415 10.3244 23.8044 9.79154 23.2554C9.2587 22.7065 8.84082 22.0567 8.56238 21.3441C8.28394 20.6315 8.15054 19.8705 8.17001 19.1058C8.19424 18.3095 8.38696 17.5275 8.73545 16.8112C9.08394 16.0948 9.58029 15.4605 10.1918 14.95C10.8033 14.4395 11.5161 14.0644 12.2831 13.8494C13.0501 13.6344 13.854 13.5844 14.6418 13.7028Z" fill="#D9D9D9"/>
<circle cx="16" cy="16" r="15.25" stroke="#386249" stroke-width="1.5"/>
</svg>
